%FSLAX25Y25*%
%MOIN*%
G70*
G01*
G75*
G04 Layer_Color=8388736*
%ADD10R,0.03150X0.03347*%
%ADD11R,0.02756X0.07087*%
%ADD12R,0.03937X0.03937*%
%ADD13R,0.05118X0.03347*%
%ADD14R,0.10500X0.04300*%
%ADD15R,0.03347X0.05118*%
%ADD16R,0.03150X0.11811*%
%ADD17R,0.10000X0.04400*%
%ADD18C,0.01200*%
%ADD19C,0.00600*%
%ADD20C,0.03000*%
%ADD21C,0.02500*%
%ADD22C,0.00700*%
%ADD23C,0.03200*%
%ADD24C,0.01600*%
%ADD25C,0.02800*%
%ADD26C,0.03500*%
%ADD27C,0.02000*%
%ADD28R,0.02953X0.02953*%
%ADD29R,0.06500X0.06500*%
%ADD30C,0.06500*%
%ADD31R,0.06500X0.06500*%
%ADD32C,0.12000*%
%ADD33C,0.05000*%
%ADD34C,0.04500*%
%ADD35C,0.02600*%
%ADD36C,0.02400*%
%ADD37C,0.04400*%
%ADD38C,0.03200*%
%ADD39C,0.03000*%
%ADD40R,0.13976X0.05906*%
%ADD41R,0.02362X0.03347*%
%ADD42R,0.03347X0.03150*%
%ADD43R,0.03543X0.04921*%
%ADD44R,0.08268X0.03543*%
%ADD45R,0.08268X0.12992*%
%ADD46C,0.01000*%
%ADD47C,0.00394*%
%ADD48C,0.01500*%
%ADD49C,0.00787*%
%ADD50C,0.00800*%
%ADD51C,0.00400*%
%ADD52R,0.03950X0.04147*%
%ADD53R,0.03556X0.07887*%
%ADD54R,0.04737X0.04737*%
%ADD55R,0.05918X0.04147*%
%ADD56R,0.11300X0.05100*%
%ADD57R,0.04147X0.05918*%
%ADD58R,0.03950X0.12611*%
%ADD59R,0.10800X0.05200*%
%ADD60R,0.03753X0.03753*%
%ADD61R,0.07300X0.07300*%
%ADD62C,0.07300*%
%ADD63R,0.07300X0.07300*%
%ADD64C,0.12800*%
%ADD65C,0.05800*%
%ADD66C,0.05300*%
%ADD67C,0.03400*%
G36*
X-89948Y-127103D02*
X-89896Y-127113D01*
X-89847Y-127130D01*
X-89800Y-127153D01*
X-89756Y-127182D01*
X-89717Y-127217D01*
X-89682Y-127256D01*
X-89653Y-127300D01*
X-89630Y-127347D01*
X-89613Y-127396D01*
X-89603Y-127448D01*
X-89599Y-127500D01*
Y-135099D01*
X-83799D01*
X-83747Y-135103D01*
X-83696Y-135113D01*
X-83646Y-135130D01*
X-83599Y-135153D01*
X-83555Y-135182D01*
X-83516Y-135217D01*
X-83481Y-135256D01*
X-83452Y-135300D01*
X-83429Y-135347D01*
X-83412Y-135396D01*
X-83402Y-135448D01*
X-83398Y-135500D01*
Y-149500D01*
X-83402Y-149552D01*
X-83412Y-149604D01*
X-83429Y-149653D01*
X-83452Y-149700D01*
X-83481Y-149744D01*
X-83516Y-149784D01*
X-83555Y-149818D01*
X-83599Y-149847D01*
X-83646Y-149870D01*
X-83696Y-149887D01*
X-83747Y-149897D01*
X-83799Y-149901D01*
X-89599D01*
Y-157500D01*
X-89603Y-157552D01*
X-89613Y-157604D01*
X-89630Y-157653D01*
X-89653Y-157700D01*
X-89682Y-157744D01*
X-89717Y-157783D01*
X-89756Y-157818D01*
X-89800Y-157847D01*
X-89847Y-157870D01*
X-89896Y-157887D01*
X-89948Y-157897D01*
X-90000Y-157901D01*
X-140000D01*
X-140052Y-157897D01*
X-140104Y-157887D01*
X-140153Y-157870D01*
X-140200Y-157847D01*
X-140244Y-157818D01*
X-140283Y-157783D01*
X-140318Y-157744D01*
X-140347Y-157700D01*
X-140370Y-157653D01*
X-140387Y-157604D01*
X-140397Y-157552D01*
X-140401Y-157500D01*
Y-149901D01*
X-146595D01*
X-146647Y-149897D01*
X-146698Y-149887D01*
X-146748Y-149870D01*
X-146795Y-149847D01*
X-146838Y-149818D01*
X-146878Y-149784D01*
X-146913Y-149744D01*
X-146942Y-149700D01*
X-146965Y-149653D01*
X-146982Y-149604D01*
X-146992Y-149552D01*
X-146995Y-149500D01*
Y-135500D01*
X-146992Y-135448D01*
X-146982Y-135396D01*
X-146965Y-135347D01*
X-146942Y-135300D01*
X-146913Y-135256D01*
X-146878Y-135217D01*
X-146838Y-135182D01*
X-146795Y-135153D01*
X-146748Y-135130D01*
X-146698Y-135113D01*
X-146647Y-135103D01*
X-146595Y-135099D01*
X-140401D01*
Y-127500D01*
X-140397Y-127448D01*
X-140387Y-127396D01*
X-140370Y-127347D01*
X-140347Y-127300D01*
X-140318Y-127256D01*
X-140283Y-127217D01*
X-140244Y-127182D01*
X-140200Y-127153D01*
X-140153Y-127130D01*
X-140104Y-127113D01*
X-140052Y-127103D01*
X-140000Y-127099D01*
X-90000D01*
X-89948Y-127103D01*
D02*
G37*
G36*
Y-52103D02*
X-89896Y-52113D01*
X-89847Y-52130D01*
X-89800Y-52153D01*
X-89756Y-52182D01*
X-89717Y-52217D01*
X-89682Y-52256D01*
X-89653Y-52300D01*
X-89630Y-52347D01*
X-89613Y-52396D01*
X-89603Y-52448D01*
X-89599Y-52500D01*
Y-60099D01*
X-83799D01*
X-83747Y-60103D01*
X-83696Y-60113D01*
X-83646Y-60130D01*
X-83599Y-60153D01*
X-83555Y-60182D01*
X-83516Y-60217D01*
X-83481Y-60256D01*
X-83452Y-60300D01*
X-83429Y-60347D01*
X-83412Y-60396D01*
X-83402Y-60448D01*
X-83398Y-60500D01*
Y-74500D01*
X-83402Y-74552D01*
X-83412Y-74604D01*
X-83429Y-74653D01*
X-83452Y-74700D01*
X-83481Y-74744D01*
X-83516Y-74783D01*
X-83555Y-74818D01*
X-83599Y-74847D01*
X-83646Y-74870D01*
X-83696Y-74887D01*
X-83747Y-74897D01*
X-83799Y-74901D01*
X-89599D01*
Y-82500D01*
X-89603Y-82552D01*
X-89613Y-82604D01*
X-89630Y-82653D01*
X-89653Y-82700D01*
X-89682Y-82744D01*
X-89717Y-82784D01*
X-89756Y-82818D01*
X-89800Y-82847D01*
X-89847Y-82870D01*
X-89896Y-82887D01*
X-89948Y-82897D01*
X-90000Y-82901D01*
X-140000D01*
X-140052Y-82897D01*
X-140104Y-82887D01*
X-140153Y-82870D01*
X-140200Y-82847D01*
X-140244Y-82818D01*
X-140283Y-82784D01*
X-140318Y-82744D01*
X-140347Y-82700D01*
X-140370Y-82653D01*
X-140387Y-82604D01*
X-140397Y-82552D01*
X-140401Y-82500D01*
Y-74901D01*
X-146595D01*
X-146647Y-74897D01*
X-146698Y-74887D01*
X-146748Y-74870D01*
X-146795Y-74847D01*
X-146838Y-74818D01*
X-146878Y-74783D01*
X-146913Y-74744D01*
X-146942Y-74700D01*
X-146965Y-74653D01*
X-146982Y-74604D01*
X-146992Y-74552D01*
X-146995Y-74500D01*
Y-60500D01*
X-146992Y-60448D01*
X-146982Y-60396D01*
X-146965Y-60347D01*
X-146942Y-60300D01*
X-146913Y-60256D01*
X-146878Y-60217D01*
X-146838Y-60182D01*
X-146795Y-60153D01*
X-146748Y-60130D01*
X-146698Y-60113D01*
X-146647Y-60103D01*
X-146595Y-60099D01*
X-140401D01*
Y-52500D01*
X-140397Y-52448D01*
X-140387Y-52396D01*
X-140370Y-52347D01*
X-140347Y-52300D01*
X-140318Y-52256D01*
X-140283Y-52217D01*
X-140244Y-52182D01*
X-140200Y-52153D01*
X-140153Y-52130D01*
X-140104Y-52113D01*
X-140052Y-52103D01*
X-140000Y-52099D01*
X-90000D01*
X-89948Y-52103D01*
D02*
G37*
D38*
X-98100Y-162300D02*
D03*
X-154100Y-134000D02*
D03*
D52*
X-34244Y-195000D02*
D03*
X-39756D02*
D03*
X-52244D02*
D03*
X-57756D02*
D03*
X-34744Y-15000D02*
D03*
X-40256D02*
D03*
X-52244D02*
D03*
X-57756D02*
D03*
X-301544Y-32100D02*
D03*
X-307056D02*
D03*
X-271344Y-32200D02*
D03*
X-276856D02*
D03*
D53*
X-92500Y-168878D02*
D03*
X-97500D02*
D03*
X-102500D02*
D03*
X-107500D02*
D03*
X-112500D02*
D03*
X-117500D02*
D03*
X-122500D02*
D03*
X-127500D02*
D03*
X-132500D02*
D03*
X-137500D02*
D03*
Y-116122D02*
D03*
X-132500D02*
D03*
X-127500D02*
D03*
X-122500D02*
D03*
X-117500D02*
D03*
X-112500D02*
D03*
X-107500D02*
D03*
X-102500D02*
D03*
X-97500D02*
D03*
X-92500D02*
D03*
Y-93878D02*
D03*
X-97500D02*
D03*
X-102500D02*
D03*
X-107500D02*
D03*
X-112500D02*
D03*
X-117500D02*
D03*
X-122500D02*
D03*
X-127500D02*
D03*
X-132500D02*
D03*
X-137500D02*
D03*
Y-41122D02*
D03*
X-132500D02*
D03*
X-127500D02*
D03*
X-122500D02*
D03*
X-117500D02*
D03*
X-112500D02*
D03*
X-107500D02*
D03*
X-102500D02*
D03*
X-97500D02*
D03*
X-92500D02*
D03*
D54*
X-115000Y-142500D02*
D03*
Y-145256D02*
D03*
Y-139744D02*
D03*
X-106732D02*
D03*
Y-145256D02*
D03*
Y-142500D02*
D03*
X-115000Y-67500D02*
D03*
Y-70256D02*
D03*
Y-64744D02*
D03*
X-106732D02*
D03*
Y-70256D02*
D03*
Y-67500D02*
D03*
D55*
X-76500Y-103555D02*
D03*
Y-110445D02*
D03*
D56*
X-279500Y-11500D02*
D03*
D57*
X-279445Y-196300D02*
D03*
X-272555D02*
D03*
X-267345D02*
D03*
X-260455D02*
D03*
X-255445Y-196200D02*
D03*
X-248555D02*
D03*
X-243545D02*
D03*
X-236655D02*
D03*
D58*
X-67500Y-141000D02*
D03*
Y-122500D02*
D03*
Y-71500D02*
D03*
Y-90000D02*
D03*
Y-154000D02*
D03*
Y-172500D02*
D03*
Y-37500D02*
D03*
Y-56000D02*
D03*
D59*
X-155550Y-118500D02*
D03*
X-189450D02*
D03*
X-155550Y-108500D02*
D03*
X-189450D02*
D03*
X-155550Y-98500D02*
D03*
X-189450D02*
D03*
X-155550Y-88500D02*
D03*
X-189450D02*
D03*
D60*
X-128779Y-142500D02*
D03*
Y-145256D02*
D03*
Y-139744D02*
D03*
X-131535Y-142500D02*
D03*
Y-145256D02*
D03*
Y-139744D02*
D03*
X-134291Y-142500D02*
D03*
Y-145256D02*
D03*
Y-139744D02*
D03*
X-137047Y-142500D02*
D03*
Y-145256D02*
D03*
Y-139744D02*
D03*
X-139803Y-142500D02*
D03*
Y-145256D02*
D03*
Y-139744D02*
D03*
X-142559Y-142500D02*
D03*
Y-145256D02*
D03*
Y-139744D02*
D03*
X-101221Y-142500D02*
D03*
Y-145256D02*
D03*
Y-139744D02*
D03*
X-98465Y-142500D02*
D03*
Y-145256D02*
D03*
Y-139744D02*
D03*
X-95709Y-142500D02*
D03*
Y-145256D02*
D03*
Y-139744D02*
D03*
X-87441D02*
D03*
Y-145256D02*
D03*
Y-142500D02*
D03*
X-90197Y-139744D02*
D03*
Y-145256D02*
D03*
Y-142500D02*
D03*
X-92953Y-139744D02*
D03*
Y-145256D02*
D03*
Y-142500D02*
D03*
X-84685D02*
D03*
Y-145256D02*
D03*
Y-139744D02*
D03*
X-145315D02*
D03*
Y-145256D02*
D03*
Y-142500D02*
D03*
Y-136988D02*
D03*
X-84685D02*
D03*
X-92953D02*
D03*
X-90197D02*
D03*
X-87441D02*
D03*
X-95709D02*
D03*
X-98465D02*
D03*
X-101221D02*
D03*
X-142559D02*
D03*
X-139803D02*
D03*
X-137047D02*
D03*
X-134291D02*
D03*
X-131535D02*
D03*
X-128779D02*
D03*
X-145315Y-148012D02*
D03*
X-84685D02*
D03*
X-92953D02*
D03*
X-90197D02*
D03*
X-87441D02*
D03*
X-95709D02*
D03*
X-98465D02*
D03*
X-101221D02*
D03*
X-142559D02*
D03*
X-139803D02*
D03*
X-137047D02*
D03*
X-134291D02*
D03*
X-131535D02*
D03*
X-128779D02*
D03*
X-92953Y-150768D02*
D03*
X-95709D02*
D03*
X-98465D02*
D03*
X-101221D02*
D03*
X-137047D02*
D03*
X-134291D02*
D03*
X-131535D02*
D03*
X-128779D02*
D03*
X-92953Y-134232D02*
D03*
X-95709D02*
D03*
X-98465D02*
D03*
X-101221D02*
D03*
X-137047D02*
D03*
X-134291D02*
D03*
X-131535D02*
D03*
X-128779D02*
D03*
Y-131476D02*
D03*
X-131535D02*
D03*
X-134291D02*
D03*
X-137047Y-131476D02*
D03*
X-101221Y-131476D02*
D03*
X-98465D02*
D03*
X-95709D02*
D03*
X-92953D02*
D03*
Y-153524D02*
D03*
X-95709D02*
D03*
X-98465D02*
D03*
X-101221D02*
D03*
X-137047Y-153524D02*
D03*
X-134291Y-153524D02*
D03*
X-131535D02*
D03*
X-128779D02*
D03*
Y-67500D02*
D03*
Y-70256D02*
D03*
Y-64744D02*
D03*
X-131535Y-67500D02*
D03*
Y-70256D02*
D03*
Y-64744D02*
D03*
X-134291Y-67500D02*
D03*
Y-70256D02*
D03*
Y-64744D02*
D03*
X-137047Y-67500D02*
D03*
Y-70256D02*
D03*
Y-64744D02*
D03*
X-139803Y-67500D02*
D03*
Y-70256D02*
D03*
Y-64744D02*
D03*
X-142559Y-67500D02*
D03*
Y-70256D02*
D03*
Y-64744D02*
D03*
X-101221Y-67500D02*
D03*
Y-70256D02*
D03*
Y-64744D02*
D03*
X-98465Y-67500D02*
D03*
Y-70256D02*
D03*
Y-64744D02*
D03*
X-95709Y-67500D02*
D03*
Y-70256D02*
D03*
Y-64744D02*
D03*
X-87441D02*
D03*
Y-70256D02*
D03*
Y-67500D02*
D03*
X-90197Y-64744D02*
D03*
Y-70256D02*
D03*
Y-67500D02*
D03*
X-92953Y-64744D02*
D03*
Y-70256D02*
D03*
Y-67500D02*
D03*
X-84685D02*
D03*
Y-70256D02*
D03*
Y-64744D02*
D03*
X-145315D02*
D03*
Y-70256D02*
D03*
Y-67500D02*
D03*
Y-61988D02*
D03*
X-84685D02*
D03*
X-92953D02*
D03*
X-90197D02*
D03*
X-87441D02*
D03*
X-95709D02*
D03*
X-98465D02*
D03*
X-101221D02*
D03*
X-142559D02*
D03*
X-139803D02*
D03*
X-137047D02*
D03*
X-134291D02*
D03*
X-131535D02*
D03*
X-128779D02*
D03*
X-145315Y-73012D02*
D03*
X-84685D02*
D03*
X-92953D02*
D03*
X-90197D02*
D03*
X-87441D02*
D03*
X-95709D02*
D03*
X-98465D02*
D03*
X-101221D02*
D03*
X-142559D02*
D03*
X-139803D02*
D03*
X-137047D02*
D03*
X-134291D02*
D03*
X-131535D02*
D03*
X-128779D02*
D03*
X-92953Y-75768D02*
D03*
X-95709D02*
D03*
X-98465D02*
D03*
X-101221D02*
D03*
X-137047D02*
D03*
X-134291D02*
D03*
X-131535D02*
D03*
X-128779D02*
D03*
X-92953Y-59232D02*
D03*
X-95709D02*
D03*
X-98465D02*
D03*
X-101221D02*
D03*
X-137047D02*
D03*
X-134291D02*
D03*
X-131535D02*
D03*
X-128779D02*
D03*
Y-56476D02*
D03*
X-131535D02*
D03*
X-134291D02*
D03*
X-137047Y-56476D02*
D03*
X-101221Y-56476D02*
D03*
X-98465D02*
D03*
X-95709D02*
D03*
X-92953D02*
D03*
Y-78524D02*
D03*
X-95709D02*
D03*
X-98465D02*
D03*
X-101221D02*
D03*
X-137047Y-78524D02*
D03*
X-134291Y-78524D02*
D03*
X-131535D02*
D03*
X-128779D02*
D03*
D61*
X-210000Y-190000D02*
D03*
X-70000Y-20000D02*
D03*
X-155000D02*
D03*
X-120000Y-190000D02*
D03*
D62*
X-200000D02*
D03*
X-190000D02*
D03*
X-180000D02*
D03*
X-170000D02*
D03*
X-160000D02*
D03*
X-210000Y-200000D02*
D03*
X-200000D02*
D03*
X-190000D02*
D03*
X-180000D02*
D03*
X-170000D02*
D03*
X-160000D02*
D03*
X-150000Y-190000D02*
D03*
Y-200000D02*
D03*
X-140000D02*
D03*
Y-190000D02*
D03*
X-80000Y-20000D02*
D03*
X-90000D02*
D03*
X-100000D02*
D03*
X-110000D02*
D03*
X-120000D02*
D03*
X-70000Y-10000D02*
D03*
X-80000D02*
D03*
X-90000D02*
D03*
X-100000D02*
D03*
X-110000D02*
D03*
X-120000D02*
D03*
X-130000Y-20000D02*
D03*
Y-10000D02*
D03*
X-140000D02*
D03*
Y-20000D02*
D03*
X-235000D02*
D03*
Y-10000D02*
D03*
X-245000D02*
D03*
Y-20000D02*
D03*
X-225000D02*
D03*
Y-10000D02*
D03*
X-215000D02*
D03*
Y-20000D02*
D03*
X-205000Y-10000D02*
D03*
X-195000D02*
D03*
X-185000D02*
D03*
X-175000D02*
D03*
X-165000D02*
D03*
X-155000D02*
D03*
X-205000Y-20000D02*
D03*
X-195000D02*
D03*
X-185000D02*
D03*
X-175000D02*
D03*
X-165000D02*
D03*
X-110000Y-190000D02*
D03*
X-100000D02*
D03*
X-90000D02*
D03*
X-80000D02*
D03*
X-70000D02*
D03*
X-120000Y-200000D02*
D03*
X-110000D02*
D03*
X-100000D02*
D03*
X-90000D02*
D03*
X-80000D02*
D03*
X-70000D02*
D03*
X-299500Y-65000D02*
D03*
Y-55000D02*
D03*
X-270000D02*
D03*
Y-65000D02*
D03*
X-299500Y-95000D02*
D03*
Y-105000D02*
D03*
Y-115000D02*
D03*
Y-125000D02*
D03*
X-270000D02*
D03*
Y-115000D02*
D03*
Y-105000D02*
D03*
Y-95000D02*
D03*
X-270000Y-165000D02*
D03*
Y-155000D02*
D03*
X-299500Y-165000D02*
D03*
Y-155000D02*
D03*
X-184358Y-139705D02*
D03*
Y-165295D02*
D03*
X-166642Y-139705D02*
D03*
Y-165295D02*
D03*
X-184358Y-42205D02*
D03*
Y-67795D02*
D03*
X-166642Y-42205D02*
D03*
Y-67795D02*
D03*
D63*
X-299500Y-45000D02*
D03*
X-270000D02*
D03*
X-299500Y-85000D02*
D03*
X-270000D02*
D03*
X-270000Y-145000D02*
D03*
X-299500D02*
D03*
D64*
X-32500Y-47500D02*
D03*
Y-67500D02*
D03*
Y-100000D02*
D03*
Y-120000D02*
D03*
Y-152500D02*
D03*
Y-172500D02*
D03*
D65*
X-217500Y-61500D02*
D03*
Y-125000D02*
D03*
D66*
X-227500Y-71500D02*
D03*
X-217500Y-81500D02*
D03*
X-227500Y-135000D02*
D03*
X-217500Y-145000D02*
D03*
D67*
X-144900Y-125200D02*
D03*
M02*
