M48
;Layer_Color=9474304
;FILE_FORMAT=2:5
INCH,LZ
;TYPE=PLATED
T1F00S00C0.01200
T2F00S00C0.01968
T3F00S00C0.02000
T4F00S00C0.02600
T5F00S00C0.02800
T6F00S00C0.03937
T7F00S00C0.04000
T8F00S00C0.04200
T9F00S00C0.05500
%
T01
X-0061842Y-01992
X-00538Y-01909
X-0045974Y-0195865
X-00358Y-01904
X-0021Y-0191
X-0020974Y-0195865
X-0010974Y-0185865
X-0005974Y-0175865
Y-0165865
Y-0155865
Y-0145865
Y-0135865
Y-0125865
Y-0115865
Y-0105865
X-0009Y-0108
X-0020974Y-0105865
X-0025974
X-0023474Y-0100865
X-0018474
X-0020974Y-0095865
X-0025974
X-0023474Y-0090865
X-0018474
X-0020974Y-0085865
X-0025974
X-0030974
X-0035974
X-0040974
X-0045974
X-0050974
X-0055974
X-0060974
X-0058474Y-0080865
X-0053474
X-0048474
X-0043474
X-0038474
X-0033474
X-0028474
X-0023474
X-0018474
X-0020974Y-0075865
X-0025974
X-0030974
X-0035974
X-0040974
X-0045974
X-0050974
X-0055974
X-0060974
X-0063474Y-0080865
X-0068474
X-0063474Y-0090865
X-0058474
X-0053474
X-0048474
X-0043474
X-0038474
X-0033474
X-0028474
X-0040974Y-0095865
X-0045974
X-0050974
X-0055974
X-0060974
X-0058474Y-0100865
X-0063474
X-00631Y-01127
X-0063474Y-0120865
X-0060974Y-0125865
X-0055974
X-0053474Y-0130865
X-0058474
X-0063474
X-0068474
X-0073474
X-0075974Y-0125865
X-0073474Y-0120865
X-0078474
X-0083474
X-0088474Y-0130865
X-0078474Y-0140865
X-0075974Y-0145865
X-0080974
X-0078474Y-0150865
X-0073474
X-0070974Y-0155865
X-0075974
X-0080974
X-0085974
X-0083474Y-0160865
X-0078474
X-0073474
X-0080974Y-0165865
X-0085974
X-0088474Y-0160865
X-00732Y-01734
X-0054Y-01625
X-0055974Y-0145865
X-0053474Y-0140865
X-0058474
X-0063474
X-0060974Y-0135865
X-0055974
X-00537Y-01128
X-0040974Y-0105865
X-0020974Y-0125865
X-0015974
X-0013474Y-0120865
Y-0130865
X-0005974Y-0095865
Y-0085865
Y-0075865
Y-0065865
X-0020974
X-0018474Y-0070865
X-0023474
X-0070974Y-0065865
X-0080974
X-0078474Y-0070865
Y-0090865
X-0073474
X-0075974Y-0095865
X-0080974
X-0088474Y-0100865
X-0079Y-0108
X-0088474Y-0080865
X-00925Y-00885
X-0097Y-0087
X-01105Y-00865
X-0115974Y-0085865
X-0120974
X-0125974
X-0130974
X-0135974
X-0140974
X-0143474Y-0080865
Y-0090865
X-0140974Y-0095865
X-0138474Y-0100865
X-0143474
X-01355Y-0103
X-0125974Y-0105865
Y-0125865
X-0120974
X-0115974
X-0110974
X-0105974
X-01025Y-01225
X-00975Y-01215
X-0093474Y-0110865
X-0108474Y-0130865
X-0113474
X-0118474
X-0123474
X-0120974Y-0135865
X-0115974
X-0110974
X-0105974
X-0110974Y-0145865
X-0108474Y-0150865
X-0113474
X-0118474
X-0123474
X-0120974Y-0145865
X-0123474Y-0140865
X-0120974Y-0155865
X-0115974
X-0110974
X-0105974
X-01105Y-01615
X-00981Y-01623
X-00925Y-0162
X-0099Y-01755
X-0123474Y-0180865
X-013Y-01816
X-0133474Y-0180865
X-0125974Y-0185865
X-0128474Y-0200865
X-0133474
X-0145974Y-0195865
X-0155974
Y-0185865
X-0153474Y-0180865
X-0155974Y-0175865
X-0153474Y-0170865
X-0155974Y-0165865
X-0153474Y-0160865
X-0155974Y-0155865
X-0163474Y-0150865
X-0175974Y-0145865
X-0180974
X-0178474Y-0140865
X-0175974Y-0135865
X-0178474Y-0130865
X-0183474
X-0188474
X-0185974Y-0125865
X-0180974
X-0183Y-01185
Y-01085
Y-0099
X-01825Y-00885
X-0183474Y-0080865
X-0178474
X-0173474
X-0168474
X-0165974Y-0085865
X-0170974
Y-0075865
X-0178474Y-0070865
X-0175974Y-0065865
X-0190974
X-0195974
X-0193474Y-0070865
X-0198474
Y-0080865
X-0193474
X-0188474
X-0198474Y-0090865
Y-0100865
Y-0110865
Y-0120865
Y-0130865
X-0203474
X-0208474
X-0205974Y-0125865
X-0210974
X-0208474Y-0120865
X-0213474
X-0210974Y-0115865
X-0205974
X-0208474Y-0110865
X-0213474
X-0210974Y-0105865
X-0205974
X-0220974
X-0225974
X-0223474Y-0100865
X-0218474
X-0215974Y-0095865
X-0220974
X-0225974
X-0223474Y-0090865
X-0218474
X-0213474
X-0208474
X-0210974Y-0085865
X-0215974
X-0220974
X-0225974
X-0223474Y-0080865
X-0228474
X-0225974Y-0075865
X-0215974
X-0210974
X-0208474Y-0070865
Y-0080865
X-0213474
X-0220974Y-0065865
X-0225974
X-0233474Y-0070865
X-0235974Y-0075865
X-0238474Y-0080865
X-0243474
X-0240974Y-0085865
X-0235974
X-0238474Y-0090865
X-0243474
X-0240974Y-0095865
X-0235974
X-0238474Y-0100865
X-0243474
X-0240974Y-0105865
X-0235974
X-0238474Y-0110865
X-0243474
X-0240974Y-0115865
X-0235974
X-0238474Y-0120865
X-0228474
X-0223474
X-0220974Y-0115865
X-0225974
X-0223474Y-0110865
X-0228474
Y-0100865
Y-0090865
X-0245974Y-0085865
Y-0095865
Y-0105865
Y-0115865
X-0238474Y-0130865
X-0235974Y-0135865
X-0240974Y-0145865
X-0245974
X-0243474Y-0150865
X-0238474
X-0235974Y-0155865
X-0240974
X-0245974
X-0243474Y-0160865
X-0238474
X-0235974Y-0165865
X-0240974
X-0245974
X-0243474Y-0170865
X-0238474
X-0248474
Y-0160865
Y-0140865
X-0223474
X-0218474
X-0213474
X-0208474
X-0203474
X-0198474
X-0193474
X-0190974Y-0145865
X-0195974
X-0200974
X-0205974
X-0210974
X-0208474Y-0150865
X-0203474
X-0198474
X-0193474
X-0188474
X-0190974Y-0155865
X-0195974
X-0200974
X-0205974
X-0210974
X-0215974
X-0220974
X-0218474Y-0150865
X-0213474
X-0223474
X-0220974Y-0165865
X-0215974
X-0210974
X-0205974
X-0200974
X-0198474Y-0170865
X-0203474
X-0208474
X-0213474
X-0218474
X-0223474
X-0220974Y-0185865
X-0218474Y-0190865
X-0223474
X-0220974Y-0195865
X-0215974
X-0218474Y-0200865
X-0233474
X-0238474
Y-0190865
X-02435Y-01925
X-0248474Y-0190865
Y-0180865
X-0235974Y-0185865
X-0213474Y-0180865
X-0208474
X-0195974Y-0185865
X-0205974Y-0195865
X-0165974
Y-0185865
X-0163474Y-0180865
X-0165974Y-0175865
X-0163474Y-0170865
X-0178474
X-0183474
X-0180974Y-0175865
X-01755Y-0182
X-0175974Y-0165865
X-0178474Y-0160865
X-0175974Y-0155865
X-0188474Y-0160865
X-0193474
X-0190974Y-0165865
X-0195974Y-0135865
X-0200974
X-0205974
X-0190974Y-0125865
X-0170974
X-0168474Y-0130865
X-01541Y-0134
X-0143474Y-0130865
X-01449Y-01252
X-0140974Y-0125865
X-0135974
X-0130974
X-0143474Y-0120865
X-0140974Y-0115865
X-0145Y-0111
X-0168474Y-0110865
Y-0100865
X-0170974Y-0095865
X-0158474Y-0080865
X-0153474
X-0155974Y-0075865
X-0153474Y-0070865
X-0158474
X-0155974Y-0065865
X-0120974
X-0123474Y-0070865
X-0120974Y-0075865
X-0115974
X-0110974
X-0105974
X-0108474Y-0080865
X-0113474
X-0118474
X-0123474
X-0110974Y-0065865
X-01275Y-01625
X-0133474Y-0160865
X-0138474
X-0140974Y-0155865
X-0248474Y-0200865
Y-0070865
X-0245974Y-0065865
X-0240974
X-0250974
X-0255974
X-0260974
X-0258474Y-0070865
X-0253474
X-0250974Y-0075865
X-0255974
X-0260974
X-0265974
X-0270974
X-0268474Y-0070865
X-0263474
Y-0080865
X-0258474
X-0255974Y-0085865
X-0260974
X-0258474Y-0090865
X-0263474
X-0260974Y-0095865
X-0255974
X-0258474Y-0100865
X-0263474
X-0260974Y-0105865
X-0255974
X-0258474Y-0110865
X-0263474
Y-0120865
X-0258474
X-0250974Y-0125865
X-0253474Y-0140865
X-0258474
X-0263474
X-0260974Y-0145865
X-0255974
X-0250974
X-0253474Y-0160865
X-0258474
X-0263474
X-0260974Y-0165865
X-0255974
X-0250974
X-0253474Y-0170865
X-0258474
X-0263474
X-0268474
X-0273474
X-0278474
X-0283474
X-0288474
X-0293474
X-0290974Y-0165865
X-0285974
X-0280974
X-0275974
Y-0175865
X-0280974
X-0285974
X-0290974
X-0295974
X-0293474Y-0180865
X-0288474
X-0283474
X-0285974Y-0185865
X-0290974
X-0288474Y-0190865
X-0283474
X-0279445Y-0191945
X-0273474Y-0190865
X-026719Y-0192
X-0270974Y-0185865
X-0260974
X-0250974
X-02555Y-01925
X-0263474Y-0200865
X-0273474
X-0293474
X-0300974Y-0195865
X-0303474Y-0190865
X-0308474Y-0180865
X-0310974Y-0175865
X-0308474Y-0170865
X-0313474
X-0310974Y-0165865
X-0308474Y-0160865
X-0313474
X-0310974Y-0155865
X-0305974
X-0303474Y-0150865
X-0308474
X-0313474
X-0310974Y-0145865
X-0305974
X-0308474Y-0140865
X-0313474
X-0310974Y-0135865
X-0305974
X-0300974
X-0295974
X-0293474Y-0140865
X-0288474
X-0283474
X-0278474
X-0275974Y-0145865
X-0280974
X-0285974
X-0290974
Y-0125865
X-0285974
X-0280974
X-0275974
X-0273474Y-0120865
X-0278474
X-0283474
X-0288474
X-0293474
Y-0110865
X-0288474
X-0283474
X-0278474
Y-0100865
X-0283474
X-0288474
X-0293474
Y-0090865
X-0288474
X-0283474
X-0278474
X-0275974Y-0085865
X-0280974
X-0285974
X-0290974
X-0288474Y-0080865
X-0283474
X-0278474
Y-0070865
X-0273474
X-0275974Y-0065865
X-0280974
X-0285974
X-0290974
X-0288474Y-0070865
X-0283474
X-0293474
X-0298474
X-0293474Y-0080865
X-0308474Y-0100865
X-0313474
X-0310974Y-0105865
X-0305974
X-0303474Y-0110865
X-0308474
X-0313474
X-0310974Y-0115865
X-0305974
X-0303474Y-0120865
X-0308474
X-0313474
X-0310974Y-0125865
X-0305974
X-0303474Y-0130865
X-0298474
X-0308474
X-0313474
X-0270974Y-0135865
X-0265974
X-0263474Y-0060865
X-0258474
X-0253474
X-0250974Y-0055865
X-0255974
X-0260974
X-0258474Y-0050865
X-0253474
Y-0040865
X-0258474
X-0263474
Y-0050865
X-0278474
X-0283474
X-0288474
X-0293474
X-0290974Y-0055865
X-0285974
X-0280974
X-0275974
X-0273474Y-0060865
X-0278474
X-0283474
X-0288474
X-0293474
Y-0040865
X-0288474
X-0283474
X-0280974Y-0015865
X-0285974
X-0290974
X-0295974
X-0300974
X-02985Y-002
X-0303474Y-0020865
X-0293474Y-0010865
X-02881Y-00115
X-0285974Y-0005865
X-02792Y-00066
X-0275974Y-0005865
X-0270974
X-0271Y-0018
X-0230974Y-0015865
X-0220974
X-0210974
X-0200974
X-0190974
X-0180974
X-0170974
X-0160974
X-0145974
X-0148474Y-0010865
Y-0020865
X-0135974Y-0015865
X-0125974
X-0115974
X-0105974
X-0095974
X-0100974Y-0025865
X-0105974
X-01025Y-00455
X-0103474Y-0050865
X-0108474
X-0113474
X-0118474
X-0123474
X-0128474
X-0133474
X-0138474
X-0140974Y-0055865
X-0145974Y-0045865
X-0143474Y-0040865
X-0148474
X-0153Y-00345
X-0160974Y-0035865
X-0165974
X-0173474Y-0040865
X-0170974Y-0045865
X-0175974
X-0173474Y-0050865
X-0178474
Y-0060865
X-0173474
X-0170974Y-0055865
X-0158474Y-0060865
X-0153474
X-0123474
X-0118474
X-0113474
X-0108474
X-0105974Y-0055865
X-0110974
X-0115974
X-0120974
X-00975Y-0048
X-0093474Y-0050865
X-0188474
X-0193474
X-0198474
X-0195974Y-0045865
X-0190974
X-0191Y-00365
X-0195974Y-0035865
X-0198474Y-0040865
X-0203474
X-0205974Y-0045865
X-0208474Y-0050865
X-0213474
X-0210974Y-0055865
X-0205974
X-0208474Y-0060865
X-0198474
X-0193474
X-0188474
X-0190974Y-0055865
X-0195974
X-0215974
X-0223474Y-0060865
X-0230974Y-0055865
X-0235974
X-0240974
X-0245974
X-0243474Y-0050865
X-0238474
X-0233474
Y-0040865
X-0228474
X-0223474
X-0218474
X-0215974Y-0035865
X-0210974
X-0208474Y-0030865
X-0213474
X-0218474
X-0223474
X-0228474
X-0225974Y-0025865
X-0220974
X-0215974
X-0210974
X-0205974
X-0200974
X-0185974Y-0035865
X-0180974
X-0220974
X-0225974
X-0230974
X-0235974
X-0238474Y-0040865
X-0243474
X-0248474
Y-0050865
Y-0060865
X-0243474
X-0238474
X-0225974Y-0045865
X-0220974
X-0230974Y-0025865
X-0085974Y-0015865
X-0075974
Y-0005865
X-0065974
X-0060974
X-0063474Y-0010865
Y-0020865
X-00495Y-0015
X-0045974Y-0015865
X-0046Y-00255
X-0045974Y-0045865
X-0040974
X-0043474Y-0050865
X-0048474
X-0053474
X-0058474
X-0063474
X-0060974Y-0045865
X-0055974
X-0050974
Y-0055865
X-0045974
X-0048474Y-0060865
X-0053474
X-0058474
X-0063474
X-0060974Y-0055865
X-0055974
X-0070974
Y-0045865
X-0065974
X-0073474Y-0040865
X-0080974Y-0045865
X-0085974
X-0083474Y-0050865
X-0078474
X-0080974Y-0055865
X-0085974
X-0088474Y-0050865
X-0078474Y-0060865
X-0030974Y-0055865
X-0025974
X-0020974
X-0018474Y-0050865
X-0023474
X-0020974Y-0045865
X-0013474Y-0040865
X-0015974Y-0035865
X-0013474Y-0030865
X-0018474
X-0023474
X-0020974Y-0025865
X-0023474Y-0020865
X-0013474
X-0023474Y-0010865
X-0031Y-0015
X-0005974Y-0035865
Y-0045865
Y-0055865
X-0018474Y-0060865
X-0023474
T02
X-0090197Y-0148012
Y-0145256
X-0087441
X-0084685
Y-0148012
X-0087441
Y-01425
X-0084685
Y-0139744
X-0087441
X-0090197
Y-01425
Y-0136988
X-0087441
X-0084685
Y-0073012
Y-0070256
X-0087441
Y-0073012
X-0090197
Y-0070256
Y-00675
X-0087441
X-0084685
Y-0064744
X-0087441
X-0090197
Y-0061988
X-0087441
X-0084685
X-0092953
Y-0064744
X-0095709
X-0098465
X-0101221
Y-00675
X-0098465
Y-0070256
Y-0073012
X-0101221
Y-0070256
Y-0075768
X-0098465
X-0095709
Y-0073012
Y-0070256
Y-00675
X-0092953
Y-0070256
Y-0073012
Y-0075768
Y-0078524
X-0095709
X-0098465
X-0101221
Y-0061988
X-0098465
X-0095709
X-0128779
Y-0064744
Y-00675
Y-0070256
Y-0073012
X-0131535
Y-0070256
X-0134291
Y-0073012
X-0137047
Y-0070256
X-0139803
Y-0073012
X-0142559
Y-0070256
Y-00675
X-0139803
X-0137047
X-0134291
X-0131535
Y-0064744
X-0134291
X-0137047
X-0139803
X-0142559
X-0145315
Y-00675
Y-0070256
Y-0073012
Y-0061988
X-0142559
X-0139803
X-0137047
X-0134291
X-0131535
Y-0075768
X-0134291
X-0137047
Y-0078524
X-0134291Y-0078524
X-0131535
X-0128779
Y-0075768
Y-0131476
Y-0134232
Y-0136988
Y-0139744
Y-01425
Y-0145256
Y-0148012
X-0131535
Y-0145256
X-0134291
Y-0148012
X-0137047
Y-0145256
X-0139803
Y-0148012
X-0142559
Y-0145256
Y-01425
X-0139803
X-0137047
X-0134291
X-0131535
Y-0139744
X-0134291
X-0137047
X-0139803
X-0142559
X-0145315
Y-01425
Y-0145256
Y-0148012
Y-0136988
X-0142559
X-0139803
X-0137047
Y-0134232
Y-0131476
X-0134291Y-0131476
Y-0134232
Y-0136988
X-0131535
Y-0134232
Y-0131476
Y-0150768
X-0134291
X-0137047
Y-0153524
X-0134291Y-0153524
X-0131535
X-0128779
Y-0150768
X-0101221
X-0098465
Y-0148012
Y-0145256
X-0101221
Y-0148012
Y-01425
X-0098465
Y-0139744
X-0101221
Y-0136988
X-0098465
Y-0134232
Y-0131476
X-0101221
Y-0134232
X-0095709
Y-0131476
X-0092953
Y-0134232
Y-0136988
Y-0139744
X-0095709
Y-01425
Y-0145256
Y-0148012
X-0092953
Y-0145256
Y-01425
Y-0150768
X-0095709
Y-0153524
X-0092953
X-0098465
X-0101221
X-0095709Y-0136988
Y-0059232
Y-0056476
X-0098465
Y-0059232
X-0101221
Y-0056476
X-0092953
Y-0059232
X-0128779
Y-0056476
X-0131535
Y-0059232
X-0134291
Y-0056476
X-0137047Y-0056476
Y-0059232
T03
X-01225Y-01085
X-01175
Y-01015
X-01225
Y-00335
X-01175
T04
X-00579Y-01182
T05
X-02275Y-0135
X-02175Y-0125
Y-0145
Y-00815
Y-00615
X-02275Y-00715
X-02645Y-0132
T06
X-0184358Y-0165295
X-0166642
Y-0139705
X-0184358
Y-0067795
X-0166642
Y-0042205
X-0184358
T07
X-02995Y-0165
Y-0155
Y-0145
X-02995Y-0125
Y-0115
Y-0105
Y-0095
Y-0085
X-02995Y-0065
X-027
X-027Y-0085
Y-0095
Y-0105
Y-0115
Y-0125
X-027Y-0145
Y-0155
Y-0165
Y-0055
Y-0045
X-02995
Y-0055
T08
X-009Y-02
Y-019
X-008
X-007
Y-02
X-008
X-01
Y-019
X-011
X-012
Y-02
X-011
X-014
X-015
X-016
Y-019
X-017
X-018
X-019
X-02
X-021
Y-02
X-02
X-019
X-018
X-017
X-015Y-019
X-014
Y-002
X-013
X-012
X-011
X-01
Y-001
X-011
X-012
X-013
X-014
X-0155
X-0165
X-0175
X-0185
X-0195
X-0205
X-0215
X-0225
X-0235
Y-002
X-0245
Y-001
X-0225Y-002
X-0215
X-0205
X-0195
X-0185
X-0175
X-0165
X-0155
X-009
X-008
X-007
Y-001
X-008
X-009
T09
X-00325Y-01725
Y-01525
Y-012
Y-01
Y-00675
Y-00475
M30
