%FSLAX25Y25*%
%MOIN*%
G70*
G01*
G75*
G04 Layer_Color=8421504*
%ADD10R,0.03150X0.03347*%
%ADD11R,0.02756X0.07087*%
%ADD12R,0.03937X0.03937*%
%ADD13R,0.05118X0.03347*%
%ADD14R,0.10500X0.04300*%
%ADD15R,0.03347X0.05118*%
%ADD16R,0.03150X0.11811*%
%ADD17R,0.10000X0.04400*%
%ADD18C,0.01200*%
%ADD19C,0.00600*%
%ADD20C,0.03000*%
%ADD21C,0.02500*%
%ADD22C,0.00700*%
%ADD23C,0.03200*%
%ADD24C,0.01600*%
%ADD25C,0.02800*%
%ADD26C,0.03500*%
%ADD27C,0.02000*%
%ADD28R,0.02953X0.02953*%
%ADD29R,0.06500X0.06500*%
%ADD30C,0.06500*%
%ADD31R,0.06500X0.06500*%
%ADD32C,0.12000*%
%ADD33C,0.05000*%
%ADD34C,0.04500*%
%ADD35C,0.02600*%
%ADD36C,0.02400*%
%ADD37C,0.04400*%
%ADD38C,0.03200*%
%ADD39C,0.03000*%
%ADD40R,0.13976X0.05906*%
%ADD41R,0.02362X0.03347*%
%ADD42R,0.03347X0.03150*%
%ADD43R,0.03543X0.04921*%
%ADD44R,0.08268X0.03543*%
%ADD45R,0.08268X0.12992*%
%ADD46C,0.01000*%
%ADD47C,0.00394*%
%ADD48C,0.01500*%
%ADD49C,0.00787*%
%ADD50C,0.00800*%
%ADD51C,0.00400*%
G36*
X-90000Y-135500D02*
X-83799D01*
Y-149500D01*
X-90000D01*
Y-157500D01*
X-140000D01*
Y-149500D01*
X-146595D01*
Y-135500D01*
X-140000D01*
Y-127500D01*
X-90000D01*
Y-135500D01*
D02*
G37*
G36*
Y-60500D02*
X-83799D01*
Y-74500D01*
X-90000D01*
Y-82500D01*
X-140000D01*
Y-74500D01*
X-146595D01*
Y-60500D01*
X-140000D01*
Y-52500D01*
X-90000D01*
Y-60500D01*
D02*
G37*
D10*
X-34244Y-195000D02*
D03*
X-39756D02*
D03*
X-52244D02*
D03*
X-57756D02*
D03*
X-34744Y-15000D02*
D03*
X-40256D02*
D03*
X-52244D02*
D03*
X-57756D02*
D03*
X-301544Y-32100D02*
D03*
X-307056D02*
D03*
X-271344Y-32200D02*
D03*
X-276856D02*
D03*
D11*
X-92500Y-168878D02*
D03*
X-97500D02*
D03*
X-102500D02*
D03*
X-107500D02*
D03*
X-112500D02*
D03*
X-117500D02*
D03*
X-122500D02*
D03*
X-127500D02*
D03*
X-132500D02*
D03*
X-137500D02*
D03*
Y-116122D02*
D03*
X-132500D02*
D03*
X-127500D02*
D03*
X-122500D02*
D03*
X-117500D02*
D03*
X-112500D02*
D03*
X-107500D02*
D03*
X-102500D02*
D03*
X-97500D02*
D03*
X-92500D02*
D03*
Y-93878D02*
D03*
X-97500D02*
D03*
X-102500D02*
D03*
X-107500D02*
D03*
X-112500D02*
D03*
X-117500D02*
D03*
X-122500D02*
D03*
X-127500D02*
D03*
X-132500D02*
D03*
X-137500D02*
D03*
Y-41122D02*
D03*
X-132500D02*
D03*
X-127500D02*
D03*
X-122500D02*
D03*
X-117500D02*
D03*
X-112500D02*
D03*
X-107500D02*
D03*
X-102500D02*
D03*
X-97500D02*
D03*
X-92500D02*
D03*
D12*
X-115000Y-142500D02*
D03*
Y-145256D02*
D03*
Y-139744D02*
D03*
X-106732D02*
D03*
Y-145256D02*
D03*
Y-142500D02*
D03*
X-115000Y-67500D02*
D03*
Y-70256D02*
D03*
Y-64744D02*
D03*
X-106732D02*
D03*
Y-70256D02*
D03*
Y-67500D02*
D03*
D13*
X-76500Y-103555D02*
D03*
Y-110445D02*
D03*
D14*
X-279500Y-11500D02*
D03*
D15*
X-279445Y-196300D02*
D03*
X-272555D02*
D03*
X-267345D02*
D03*
X-260455D02*
D03*
X-255445Y-196200D02*
D03*
X-248555D02*
D03*
X-243545D02*
D03*
X-236655D02*
D03*
D16*
X-67500Y-141000D02*
D03*
Y-122500D02*
D03*
Y-71500D02*
D03*
Y-90000D02*
D03*
Y-154000D02*
D03*
Y-172500D02*
D03*
Y-37500D02*
D03*
Y-56000D02*
D03*
D17*
X-155550Y-118500D02*
D03*
X-189450D02*
D03*
X-155550Y-108500D02*
D03*
X-189450D02*
D03*
X-155550Y-98500D02*
D03*
X-189450D02*
D03*
X-155550Y-88500D02*
D03*
X-189450D02*
D03*
M02*
